# xmcd
#
# Track frame offsets:
#	150
#	20161
#	36128
#	52474
#	68398
#	83842
#	103286
#	124292
#	146975
#	167994
#	186853
#	200001
#	211672
#	234095
#
# Disc length: 3408 seconds
#
# Revision: 4
# Processed by: cddbd v1.5.1PL2 Copyright (c) Steve Scherf et al.
# Submitted via: audiograbber 1.83.01
#
DISCID=d20d4e0e
DTITLE=Катя Огонёк - Белая тайга 1
DYEAR=2000
DGENRE=Chanson
TTITLE0=Лейтенантик
TTITLE1=Я зажгу для тебя огонёк
TTITLE2=Вор
TTITLE3=Чёрное, чёрное море
TTITLE4=Следователь
TTITLE5=Конвоир
TTITLE6=Северный ветер
TTITLE7=Хакинск
TTITLE8=Я ревную тебя
TTITLE9=Костерок
TTITLE10=Зацелую тебя
TTITLE11=Ванечка
TTITLE12=Дорога домой
TTITLE13=Белая тайга
EXTD=
EXTT0=
EXTT1=
EXTT2=
EXTT3=
EXTT4=
EXTT5=
EXTT6=
EXTT7=
EXTT8=
EXTT9=
EXTT10=
EXTT11=
EXTT12=
EXTT13=
PLAYORDER=
